<?xml version="1.0" standalone="no"?>
<!DOCTYPE svg PUBLIC "-//W3C//DTD SVG 20010904//EN"
 "http://www.w3.org/TR/2001/REC-SVG-20010904/DTD/svg10.dtd">
<svg version="1.0" xmlns="http://www.w3.org/2000/svg"
 width="600.000000pt" height="600.000000pt" viewBox="0 0 800.000000 800.000000"
 preserveAspectRatio="xMidYMid meet">

<g transform="translate(0.000000,800.000000) scale(0.100000,-0.100000)"
fill="#000000" stroke="none">
<path d="M1516 4133 c-3 -159 -9 -327 -13 -375 l-6 -88 295 0 295 0 7 61 c11
110 29 99 -161 99 l-166 0 7 295 7 295 -129 0 -129 0 -7 -287z"/>
<path d="M2246 4328 c-3 -51 -11 -174 -17 -273 -16 -250 -4 -287 114 -345 83
-40 161 -53 282 -47 160 9 256 49 308 130 30 45 30 47 52 327 9 113 18 226 22
253 l6 47 -121 0 c-136 0 -132 3 -132 -96 0 -114 -32 -380 -50 -421 -24 -55
-66 -77 -134 -70 -41 4 -55 10 -79 38 l-30 33 6 200 c4 111 10 227 13 259 l7
57 -120 0 -121 0 -6 -92z"/>
<path d="M3177 4363 c20 -32 70 -111 110 -176 l74 -118 -149 -200 -150 -199
129 0 129 0 71 108 c39 59 75 111 79 115 4 5 36 -44 71 -107 l64 -116 137 0
137 0 -110 170 c-60 94 -115 181 -121 194 -9 22 -5 33 38 93 39 56 168 230
207 281 7 9 -18 12 -119 12 l-129 -1 -59 -94 c-33 -52 -62 -95 -65 -95 -3 0
-28 43 -56 95 l-50 95 -138 0 -138 0 38 -57z"/>
<path d="M4026 4328 c-3 -51 -11 -174 -17 -273 -16 -250 -4 -287 114 -345 83
-40 161 -53 282 -47 160 9 256 49 308 130 30 45 30 47 52 327 9 113 18 226 22
253 l6 47 -121 0 c-136 0 -132 3 -132 -96 0 -114 -32 -380 -50 -421 -24 -55
-66 -77 -134 -70 -41 4 -55 10 -79 38 l-30 33 6 200 c4 111 10 227 13 259 l7
57 -120 0 -121 0 -6 -92z"/>
<path d="M4976 4233 c-7 -202 -23 -464 -33 -525 l-6 -38 117 0 116 0 0 53 c0
72 18 419 26 490 l6 57 69 0 c120 0 165 -35 143 -112 -14 -49 -55 -73 -125
-73 -32 0 -59 0 -59 0 3 0 83 -232 106 -305 l32 -105 126 -3 127 -3 -15 33
c-7 18 -36 83 -64 143 -72 161 -72 148 -7 184 70 39 104 90 112 165 7 69 -15
134 -58 170 -56 48 -111 56 -370 56 l-237 0 -6 -187z"/>
<path d="M5743 4413 c3 -5 60 -106 127 -227 l123 -219 -7 -106 c-4 -58 -9
-125 -12 -148 l-6 -43 119 0 120 0 7 143 7 142 75 110 c41 61 113 165 160 233
l84 122 -132 0 -133 0 -79 -131 -78 -131 -64 131 -63 131 -126 0 c-69 0 -124
-3 -122 -7z"/>
</g>
</svg>
